<svg id="Capa_1" enable-background="new 0 0 512 512" height="512" viewBox="0 0 512 512" width="512" xmlns="http://www.w3.org/2000/svg"><g><g><path d="m56.35 74.154c-55.13 55.05-55.13 144.3 0 199.35l199.65 199.36 30-204.463-30-194.247c-55.13-55.05-144.52-55.05-199.65 0z" fill="#ec3c93"/><path d="m455.65 273.504-199.65 199.36v-398.71c55.13-55.05 144.52-55.05 199.65 0s55.13 144.3 0 199.35z" fill="#bc008b"/><path d="m66.95 262.894c-23.83-23.79-36.95-55.42-36.95-89.06 0-33.65 13.12-65.28 36.95-89.07 24.6-24.56 56.91-36.84 89.22-36.84 32.32 0 64.63 12.28 89.23 36.84l10.6 10.59 10-31.2-10-10.28c-61.29-50.95-152.78-47.72-210.25 9.66-29.5 29.46-45.75 68.63-45.75 110.3 0 41.66 16.25 80.83 45.75 110.29l210.25 209.94 10-31.2-10-11.2z" fill="#f27bb5"/><path d="m512 173.834c0 41.66-16.25 80.83-45.75 110.29l-210.25 209.94v-42.4l189.05-188.77c23.83-23.79 36.95-55.42 36.95-89.06 0-33.65-13.12-65.28-36.95-89.07-49.2-49.12-129.25-49.12-178.45 0l-10.6 10.59v-41.48c61.29-50.95 152.78-47.72 210.25 9.66 29.5 29.46 45.75 68.63 45.75 110.3z" fill="#ec3c93"/><path d="m224.2 105.994c-18.14-18.12-42.3-28.1-68.03-28.1-25.72 0-49.88 9.98-68.02 28.1-18.15 18.12-28.15 42.22-28.15 67.84s10 49.71 28.15 67.83l167.85 167.61 30-140.873-30-130.657z" fill="#724435"/><path d="m423.85 241.664-167.85 167.61v-271.53l31.8-31.75c18.14-18.12 42.3-28.1 68.03-28.1 25.72 0 49.88 9.98 68.02 28.1 18.15 18.12 28.15 42.22 28.15 67.84s-10 49.71-28.15 67.83z" fill="#4f2f25"/></g></g></svg>